<svg width="27" height="27" viewBox="0 0 27 27" fill="none" xmlns="http://www.w3.org/2000/svg">
<path d="M21.9338 15.6937L22.9739 10.0231C23.0163 9.79148 23.007 9.55346 22.9464 9.32584C22.8859 9.09823 22.7756 8.88658 22.6235 8.70586C22.4713 8.52514 22.281 8.37976 22.0659 8.28C21.8509 8.18023 21.6163 8.12853 21.3789 8.12854H8.05387L7.70655 6.23399C7.6388 5.86358 7.44197 5.52852 7.15042 5.28732C6.85888 5.04613 6.49115 4.9141 6.11143 4.91431H4.97264C4.71468 4.91431 4.46728 5.0159 4.28488 5.19673C4.10247 5.37757 4 5.62284 4 5.87858C4 6.13432 4.10247 6.37958 4.28488 6.56042C4.46728 6.74125 4.71468 6.84284 4.97264 6.84284H5.84096L7.95677 18.3801C7.96649 18.4327 7.97914 18.4841 7.99364 18.5346C7.6749 18.8542 7.4463 19.2512 7.33064 19.6858C7.21498 20.1204 7.21631 20.5775 7.3345 21.0114C7.4527 21.4453 7.68361 21.8409 8.00421 22.1588C8.32481 22.4766 8.72388 22.7055 9.16159 22.8226C9.5993 22.9398 10.0603 22.941 10.4987 22.8263C10.9371 22.7116 11.3374 22.485 11.6598 22.1689C11.9822 21.8529 12.2154 21.4586 12.336 21.0253C12.4567 20.5921 12.4606 20.135 12.3474 19.6998H17.0506C16.9153 20.219 16.9472 20.7672 17.1418 21.2676C17.3363 21.7681 17.6838 22.1957 18.1357 22.4906C18.5875 22.7855 19.121 22.933 19.6616 22.9124C20.2021 22.8918 20.7227 22.7042 21.1504 22.3758C21.578 22.0474 21.8915 21.5947 22.0467 21.0809C22.202 20.5672 22.1914 20.0182 22.0164 19.5107C21.8414 19.0033 21.5107 18.5628 21.0706 18.2509C20.6306 17.9389 20.1031 17.7712 19.5622 17.7712H9.82228L9.58642 16.4855H20.9769C21.2047 16.4855 21.4252 16.4063 21.6001 16.2616C21.775 16.1169 21.8931 15.9159 21.9339 15.6937H21.9338ZM10.4842 20.3426C10.4842 20.4697 10.4462 20.594 10.375 20.6997C10.3037 20.8055 10.2024 20.8879 10.084 20.9365C9.96547 20.9852 9.8351 20.9979 9.70932 20.9731C9.58353 20.9483 9.468 20.8871 9.37731 20.7972C9.28663 20.7073 9.22487 20.5927 9.19985 20.468C9.17483 20.3433 9.18767 20.2141 9.23675 20.0966C9.28583 19.9791 9.36894 19.8787 9.47557 19.8081C9.5822 19.7375 9.70757 19.6998 9.83582 19.6998C10.0077 19.7 10.1725 19.7678 10.2941 19.8883C10.4156 20.0088 10.484 20.1722 10.4842 20.3426ZM19.5622 20.9854C19.4339 20.9854 19.3086 20.9477 19.2019 20.8771C19.0953 20.8065 19.0122 20.7061 18.9631 20.5886C18.914 20.4711 18.9012 20.3419 18.9262 20.2172C18.9512 20.0925 19.013 19.9779 19.1037 19.888C19.1944 19.7981 19.3099 19.7369 19.4357 19.7121C19.5615 19.6873 19.6918 19.7 19.8103 19.7487C19.9288 19.7973 20.0301 19.8797 20.1013 19.9855C20.1726 20.0912 20.2106 20.2155 20.2106 20.3426C20.2104 20.513 20.142 20.6764 20.0204 20.7969C19.8989 20.9174 19.7341 20.9852 19.5622 20.9854ZM9.23278 14.557L8.40766 10.0571H20.9903L20.1651 14.557H9.23278Z" fill="#FDFBF8"/>
</svg>
