<svg width="109" height="108" viewBox="0 0 109 108" fill="none" xmlns="http://www.w3.org/2000/svg">
<rect x="0.333252" width="108" height="108" rx="24" fill="#EEEBFF"/>
<g clip-path="url(#clip0_908_254)">
<path d="M43.25 72.0494C43.2328 71.9644 43.2075 71.8808 43.1743 71.7997C43.1411 71.7201 43.1 71.643 43.0522 71.5713C43.0043 71.4983 42.9486 71.4305 42.8875 71.3694C42.8264 71.3083 42.7586 71.2526 42.6856 71.2047C42.6139 71.1569 42.5368 71.1158 42.4558 71.0826C42.3761 71.0494 42.2925 71.0228 42.2075 71.0069C42.0361 70.9723 41.8595 70.9723 41.6895 71.0069C41.6045 71.0228 41.5208 71.0494 41.4398 71.0826C41.3601 71.1158 41.2831 71.1569 41.2114 71.2047C41.1383 71.2526 41.0706 71.3083 41.0095 71.3694C40.9484 71.4305 40.8926 71.4983 40.8448 71.5713C40.7957 71.643 40.7558 71.7201 40.7226 71.7997C40.6894 71.8808 40.6629 71.9644 40.6469 72.0494C40.6297 72.1344 40.6204 72.2221 40.6204 72.3084C40.6204 72.3947 40.6297 72.4824 40.6469 72.5674C40.6629 72.6524 40.6894 72.7361 40.7226 72.8158C40.7558 72.8968 40.7957 72.9738 40.8448 73.0455C40.8926 73.1186 40.9484 73.1863 41.0095 73.2474C41.0706 73.3085 41.1383 73.3643 41.2114 73.4121C41.2831 73.46 41.3601 73.5012 41.4398 73.5344C41.5208 73.5676 41.6045 73.5942 41.6895 73.6101C41.7745 73.6274 41.8622 73.6367 41.9485 73.6367C42.0348 73.6367 42.1225 73.6274 42.2075 73.6101C42.2925 73.5942 42.3761 73.5676 42.4558 73.5344C42.5368 73.5012 42.6139 73.4599 42.6856 73.4121C42.7586 73.3643 42.8264 73.3085 42.8875 73.2474C42.9486 73.1863 43.0043 73.1186 43.0522 73.0455C43.1 72.9738 43.1411 72.8968 43.1743 72.8158C43.2075 72.7361 43.2328 72.6524 43.25 72.5674C43.2673 72.4824 43.2766 72.3947 43.2766 72.3084C43.2766 72.2221 43.2673 72.1344 43.25 72.0494Z" fill="#70908B"/>
<path d="M81.4261 72.4585C81.4209 72.4452 81.4156 72.4321 81.41 72.4191C80.1876 69.5587 77.3207 68.5015 73.9279 69.6603L64.6751 72.2191C64.1401 70.599 62.8058 69.2204 60.919 68.5202C60.9073 68.516 60.8956 68.5117 60.8838 68.5078L50.7129 65.0557C49.8664 63.9615 47.2146 61.1615 42.2497 61.1615C38.78 61.1615 35.7105 63.5418 33.9545 66.1363H21.6614C20.9279 66.1363 20.3333 66.7309 20.3333 67.4644V84.209C20.3333 84.9425 20.9279 85.5371 21.6614 85.5371H29.558C30.2915 85.5371 30.8861 84.9425 30.8861 84.209V83.0623H34.5893C35.3229 83.0623 35.9175 82.4677 35.9175 81.7341V81.3519C38.0762 81.5402 38.7862 81.9497 40.7688 83.0929C42.2935 83.9722 44.598 85.301 48.7478 87.1668C48.7671 87.1755 48.7866 87.1837 48.8061 87.1914C49.6026 87.5047 51.1596 87.9969 53.0791 87.9969C54.4152 87.9969 55.9273 87.7582 57.4793 87.0547L77.9312 79.732C77.9676 79.719 78.0035 79.7044 78.0386 79.6882C79.9932 78.7889 82.9059 76.2544 81.4261 72.4585ZM28.2299 82.8807H22.9895V68.7924H28.2299V82.8807ZM33.2612 80.4059H30.8861V68.7924H33.2612V80.4059ZM76.9773 77.252L56.5345 84.5714C56.5166 84.5778 56.4923 84.5874 56.4746 84.5945C56.4567 84.6018 56.4387 84.6095 56.4211 84.6176C53.574 85.9261 50.8676 85.1428 49.807 84.7304C45.7985 82.9267 43.659 81.693 42.0958 80.7916C39.9224 79.5384 38.8752 78.9343 35.9175 78.6901V67.9931C37.1764 65.9297 39.6178 63.8176 42.2498 63.8176C46.7636 63.8176 48.6762 66.7534 48.7514 66.8719C48.9136 67.1357 49.1629 67.3345 49.456 67.434L60.0113 71.0164C61.697 71.6492 62.5879 73.0928 62.1785 74.5325C61.9895 75.1974 61.5528 75.7488 60.949 76.0852C60.3505 76.4187 59.6585 76.5012 58.999 76.3187L47.0999 72.5479C46.4002 72.3262 45.6541 72.7135 45.4326 73.4128C45.2109 74.112 45.5982 74.8584 46.2974 75.0801L58.2172 78.8574C58.2298 78.8614 58.2425 78.8653 58.2552 78.8688C58.7311 79.0042 59.2156 79.0711 59.6971 79.0711C60.5788 79.0711 61.4507 78.8465 62.242 78.4056C63.4656 77.7239 64.3504 76.6064 64.7334 75.259C64.7639 75.1514 64.791 75.0438 64.8145 74.9363L74.7865 72.1738C76.2267 71.6818 78.1173 71.5045 78.9591 73.4432C79.8303 75.7192 77.5659 76.9712 76.9773 77.252Z" fill="#70908B"/>
<path d="M68.0209 37.4706C68.0036 37.3856 67.9784 37.3019 67.9439 37.2209C67.9107 37.1412 67.8708 37.0642 67.8217 36.9925C67.7739 36.9194 67.7181 36.8517 67.657 36.7906C67.5959 36.7295 67.5282 36.6737 67.4551 36.6259C67.3834 36.5781 67.3064 36.5369 67.2267 36.5037C67.1457 36.4705 67.062 36.4439 66.9783 36.428C66.807 36.3935 66.6304 36.3935 66.459 36.428C66.374 36.4439 66.2904 36.4705 66.2107 36.5037C66.1297 36.5369 66.0526 36.5781 65.9809 36.6259C65.9079 36.6737 65.8401 36.7295 65.779 36.7906C65.7179 36.8517 65.6622 36.9194 65.6143 36.9925C65.5665 37.0642 65.5254 37.1412 65.4922 37.2209C65.459 37.3019 65.4324 37.3856 65.4165 37.4706C65.3992 37.5556 65.3899 37.6432 65.3899 37.7296C65.3899 37.8159 65.3992 37.9035 65.4165 37.9885C65.4324 38.0735 65.459 38.1572 65.4922 38.2369C65.5254 38.3179 65.5665 38.395 65.6143 38.4667C65.6622 38.5397 65.7179 38.6075 65.779 38.6685C65.8401 38.7296 65.9079 38.7854 65.9809 38.8332C66.0526 38.881 66.1297 38.9222 66.2107 38.9554C66.2904 38.9886 66.374 39.0139 66.459 39.0311C66.544 39.0484 66.6317 39.0577 66.718 39.0577C66.8043 39.0577 66.892 39.0484 66.9783 39.0311C67.062 39.0139 67.1457 38.9886 67.2267 38.9554C67.3064 38.9222 67.3834 38.881 67.4551 38.8332C67.5282 38.7854 67.5959 38.7296 67.657 38.6685C67.7181 38.6075 67.7739 38.5397 67.8217 38.4667C67.8708 38.395 67.9107 38.3179 67.9439 38.2369C67.9784 38.1572 68.0036 38.0735 68.0209 37.9885C68.0382 37.9035 68.0461 37.8159 68.0461 37.7296C68.0461 37.6432 68.0382 37.5556 68.0209 37.4706Z" fill="#70908B"/>
<path d="M87.0052 24.5011H79.1086C78.375 24.5011 77.7804 25.0957 77.7804 25.8292V26.9759H74.0772C73.3437 26.9759 72.7491 27.5705 72.7491 28.3041V28.6863C70.5904 28.4978 69.8803 28.0885 67.8978 26.9453C66.3732 26.066 64.0687 24.7373 59.9187 22.8714C59.8995 22.8626 59.8801 22.8545 59.8603 22.8468C58.5095 22.3153 54.9691 21.2695 51.1878 22.9832L45.8434 24.8968L41.3385 20.392C40.8199 19.8734 39.9789 19.8734 39.4603 20.392L24.6706 35.1816C24.1922 35.6601 24.1004 36.4898 24.6706 37.06L49.9431 62.3325C50.3475 62.737 51.2944 62.8594 51.8214 62.3325L65.3238 48.8302C65.6748 48.8605 66.0391 48.8768 66.4167 48.8768C69.8866 48.8768 72.9559 46.4966 74.7118 43.9022H87.0052C87.7387 43.9022 88.3333 43.3076 88.3333 42.5741V25.8292C88.3333 25.0957 87.7387 24.5011 87.0052 24.5011ZM40.3993 23.2094L43.4263 26.2364C42.5265 26.7929 41.4862 27.0907 40.3993 27.0907C39.3122 27.0907 38.272 26.7931 37.3722 26.2364L40.3993 23.2094ZM30.5151 39.1479L27.4881 36.1207L30.5151 33.0937C31.0716 33.9935 31.3694 35.0338 31.3694 36.1207C31.3694 37.2077 31.0717 38.248 30.5151 39.1479ZM50.8823 59.515L47.8558 56.4885C49.7036 55.3481 52.0608 55.3481 53.9087 56.4885L50.8823 59.515ZM55.8223 54.5752C52.8874 52.4462 48.8772 52.4462 45.9423 54.5752L32.4285 41.0612C33.4657 39.6348 34.0256 37.9214 34.0256 36.1207C34.0256 34.3199 33.4658 32.6067 32.4285 31.1803L35.4589 28.15C36.8853 29.1871 38.5986 29.7471 40.3994 29.7471C42.2002 29.7471 43.9135 29.1871 45.3399 28.15L48.2125 31.0226C47.5927 31.1141 46.9882 31.3184 46.4246 31.6325C45.4726 32.1629 44.7257 32.9573 44.2605 33.9183C42.7624 34.1958 41.3755 34.921 40.2875 36.0089C37.3357 38.9608 37.3357 43.7637 40.2876 46.7156C41.7634 48.1914 43.7021 48.9294 45.6409 48.9294C47.5795 48.9294 49.5183 48.1915 50.9943 46.7156C51.9545 45.7554 52.6272 44.5752 52.9641 43.289L57.4484 44.8109C56.9436 47.1495 57.4606 49.6097 58.8553 51.5421L55.8223 54.5752ZM47.7475 41.518C47.7592 41.5222 47.7709 41.5265 47.7827 41.5305L50.4385 42.4319C50.2379 43.337 49.7841 44.1692 49.116 44.8374C47.1998 46.7533 44.0819 46.7536 42.166 44.8374C40.2497 42.9213 40.2497 39.8035 42.166 37.8873C42.6281 37.4248 43.1736 37.0634 43.7679 36.8184C44.0131 38.8587 45.4822 40.6773 47.7475 41.518ZM60.769 49.6283C60.2563 48.7929 59.9663 47.8395 59.9205 46.8663C60.5566 47.3263 61.3341 47.7769 62.2627 48.1346L60.769 49.6283ZM72.749 42.0446C71.4902 44.1082 69.0488 46.2203 66.4167 46.2203C65.9243 46.2203 65.4627 46.1853 65.0312 46.1229C65.0295 46.1226 65.0278 46.1223 65.026 46.1221C62.1578 45.7054 60.6149 44.0753 60.1064 43.4298C60.0793 43.39 59.9639 43.239 59.9468 43.2139C59.792 42.9373 59.5384 42.715 59.2148 42.6052L48.6552 39.0212C46.9701 38.3888 46.0793 36.9458 46.4875 35.5066C46.4878 35.5057 46.4881 35.5048 46.4883 35.5038C46.4887 35.5028 46.489 35.5016 46.4893 35.5005C46.6791 34.8378 47.115 34.2881 47.7174 33.9524C48.3158 33.619 49.0077 33.5362 49.6675 33.7191L61.5665 37.4898C62.2659 37.7117 63.0123 37.3242 63.2339 36.6249C63.4554 35.9256 63.0683 35.1792 62.369 34.9576L52.9054 31.9587L52.8228 31.8761C52.822 31.8753 52.8212 31.8743 52.8203 31.8735L47.9209 26.9741L52.1321 25.4661C52.1463 25.4609 52.1638 25.4544 52.1779 25.4487C52.1815 25.4473 52.1884 25.4446 52.1918 25.4432C52.2099 25.4358 52.2277 25.4281 52.2454 25.42C55.0923 24.1116 57.7985 24.8948 58.8593 25.3073C62.868 27.111 65.0076 28.3447 66.5708 29.2461C68.7441 30.4995 69.7914 31.1034 72.749 31.3476V42.0446V42.0446ZM77.7804 41.2457H75.4053V29.6322H77.7804V41.2457ZM85.6771 41.2457H80.4367V27.1574H85.6771V41.2457Z" fill="#70908B"/>
</g>
<defs>
<clipPath id="clip0_908_254">
<rect width="68" height="68" fill="white" transform="translate(20.3333 20)"/>
</clipPath>
</defs>
</svg>
