<svg width="108" height="108" viewBox="0 0 108 108" fill="none" xmlns="http://www.w3.org/2000/svg">
<rect x="0.155762" y="0.15564" width="107.689" height="107.689" rx="24" fill="#FFF4E7"/>
<path d="M87.1586 34.7946L60.7962 20.3187C60.4001 20.1013 59.9198 20.1013 59.5237 20.3187L49.5872 25.7747C49.3776 25.83 49.1818 25.9353 49.0197 26.0866L33.1618 34.7946C32.7389 35.0265 32.476 35.4706 32.476 35.9534V53.4613C29.801 54.2979 27.3495 55.7733 25.3112 57.8121C19.9982 63.1246 18.6436 71.2273 21.9405 77.9744C22.2606 78.6302 23.0523 78.9024 23.7082 78.5817C24.3646 78.261 24.6362 77.4693 24.316 76.8134C21.5149 71.0806 22.666 64.1962 27.1806 59.6816C30.0039 56.8583 33.7573 55.3033 37.7498 55.3033C41.7422 55.3033 45.4956 56.8583 48.3189 59.6816C51.1417 62.5044 52.6966 66.2577 52.6966 70.2502C52.6966 74.2427 51.1417 77.9961 48.3184 80.8193C43.8038 85.3339 36.9193 86.485 31.1865 83.6839C30.5307 83.3633 29.739 83.6354 29.4188 84.2913C29.0981 84.9476 29.3697 85.7393 30.0261 86.0595C32.4838 87.2607 35.1206 87.8443 37.7384 87.8443C42.3051 87.8437 46.8109 86.0662 50.1883 82.6888C51.7371 81.14 52.961 79.3532 53.8271 77.4109L59.5237 80.5389C59.722 80.6479 59.941 80.7021 60.16 80.7021C60.3789 80.7021 60.5984 80.6479 60.7962 80.5389L87.1586 66.0636C87.5816 65.8312 87.8444 65.387 87.8444 64.9047V55.717C87.8444 54.9868 87.2526 54.395 86.5224 54.395C85.7922 54.395 85.2003 54.9868 85.2003 55.717V64.1223L61.4861 77.144V51.2091L69.3126 46.9114V53.7241C69.3126 54.192 69.5594 54.6248 69.9617 54.8623C70.1693 54.9847 70.4017 55.0462 70.6346 55.0462C70.8536 55.0462 71.073 54.9919 71.2719 54.8825L76.921 51.7731C77.3435 51.5407 77.6053 51.0971 77.6053 50.6152V42.3576L85.2003 38.1875V45.1411C85.2003 45.8714 85.7922 46.4632 86.5224 46.4632C87.2526 46.4632 87.8444 45.8714 87.8444 45.1411V35.9534C87.8444 35.4711 87.5816 35.0265 87.1586 34.7946ZM60.16 22.9855L83.7755 35.9534L76.3261 40.044L52.7106 27.0761L60.16 22.9855ZM60.16 48.9209L36.5444 35.9534L44.267 31.7126L67.8831 44.68L60.16 48.9209ZM70.6294 43.172L47.0139 30.2046L49.9637 28.5846L73.5798 41.552L70.6294 43.172ZM50.1883 57.8121C46.8657 54.4895 42.4482 52.6598 37.7498 52.6598C36.861 52.6598 35.9831 52.7253 35.1201 52.8539V38.1875L58.8426 51.2138V77.1486L54.7251 74.8877C55.1305 73.3952 55.3402 71.8387 55.3402 70.2502C55.3402 65.5518 53.5105 61.1343 50.1883 57.8121ZM74.9617 49.8339L71.9566 51.488V45.4598L74.9617 43.8098V49.8339Z" fill="#70908B"/>
<path d="M86.5225 49.1006C86.1749 49.1006 85.8336 49.2421 85.5878 49.4879C85.3419 49.7337 85.2004 50.0746 85.2004 50.4226C85.2004 50.7702 85.3419 51.111 85.5878 51.3568C85.8336 51.6032 86.1749 51.7442 86.5225 51.7442C86.87 51.7442 87.2114 51.6032 87.4572 51.3568C87.703 51.111 87.8445 50.7702 87.8445 50.4226C87.8445 50.0746 87.703 49.7337 87.4572 49.4879C87.2114 49.2421 86.87 49.1006 86.5225 49.1006Z" fill="#70908B"/>
<path d="M33.3044 71.5723C33.6426 71.5723 33.9814 71.4432 34.2391 71.1855C34.7555 70.6691 34.7555 69.8319 34.2391 69.3155L33.3235 68.3994H41.137C43.0323 68.3994 44.5743 69.9414 44.5743 71.8367C44.5743 73.732 43.0323 75.274 41.137 75.274H36.5072C35.777 75.274 35.1852 75.8658 35.1852 76.5961C35.1852 77.3258 35.777 77.9176 36.5072 77.9176H41.137C44.4901 77.9176 47.2184 75.1898 47.2184 71.8367C47.2184 68.4836 44.4901 65.7558 41.137 65.7558H33.3235L34.2391 64.8397C34.7555 64.3232 34.7555 63.4861 34.2391 62.9697C33.7232 62.4538 32.8861 62.4538 32.3697 62.9697L29.1967 66.1426C28.6808 66.659 28.6808 67.4962 29.1967 68.0126L32.3697 71.185C32.6279 71.4432 32.9661 71.5723 33.3044 71.5723Z" fill="#70908B"/>
<path d="M26.2469 83.078C25.871 83.078 25.4976 82.9179 25.2368 82.6076L25.2342 82.6045C24.7643 82.0457 24.8366 81.2122 25.3954 80.7422C25.9541 80.2718 26.7882 80.3441 27.2581 80.9028C27.7275 81.4621 27.6568 82.2972 27.098 82.7671C26.8496 82.9758 26.5475 83.078 26.2469 83.078Z" fill="#70908B"/>
</svg>
