<svg width="109" height="108" viewBox="0 0 109 108" fill="none" xmlns="http://www.w3.org/2000/svg">
<rect x="0.666748" width="108" height="108" rx="24" fill="#CAF3E5"/>
<path d="M54.6668 20.0894C38.2327 20.0894 24.8625 33.4595 24.8625 49.8936C24.8625 51.7148 24.8625 65.8035 24.8625 66.0541C24.8625 69.3409 27.5366 72.015 30.8234 72.015H33.1521C33.9723 74.3275 36.1809 75.9889 38.7712 75.9889C42.058 75.9889 44.732 73.3148 44.732 70.028V53.8675C44.732 50.5807 42.058 47.9066 38.7712 47.9066C36.1809 47.9066 33.9723 49.568 33.1521 51.8805H30.8234C30.1268 51.8805 29.4584 52.0017 28.8364 52.2223V49.8936C28.8364 35.6507 40.4239 24.0633 54.6668 24.0633C68.9096 24.0633 80.4971 35.6507 80.4971 49.8936V52.2223C79.8752 52.0017 79.2068 51.8805 78.5102 51.8805H76.1815C75.3612 49.568 73.1527 47.9066 70.5624 47.9066C67.2756 47.9066 64.6015 50.5807 64.6015 53.8675V70.028C64.6015 73.3148 67.2756 75.9889 70.5624 75.9889C71.1639 75.9889 71.7446 75.8985 72.2925 75.732C71.5492 78.1775 69.2738 79.9627 66.5885 79.9627H60.2859C59.4657 77.6502 57.2571 75.9889 54.6668 75.9889C51.38 75.9889 48.7059 78.6629 48.7059 81.9497C48.7059 85.2365 51.38 87.9105 54.6668 87.9105C57.2571 87.9105 59.4657 86.2492 60.2859 83.9366H66.5885C72.0665 83.9366 76.5232 79.4799 76.5232 74.0019V72.015H78.5102C81.797 72.015 84.471 69.3409 84.471 66.0541C84.471 65.8072 84.471 51.7134 84.471 49.8936C84.471 33.4595 71.1008 20.0894 54.6668 20.0894ZM36.7842 53.8675C36.7842 52.7719 37.6756 51.8805 38.7712 51.8805C39.8668 51.8805 40.7581 52.7719 40.7581 53.8675V70.028C40.7581 71.1236 39.8668 72.015 38.7712 72.015C37.6756 72.015 36.7842 71.1236 36.7842 70.028V53.8675ZM30.8234 55.8544H32.8103V68.0411H30.8234C29.7278 68.0411 28.8364 67.1497 28.8364 66.0541V57.8414C28.8364 56.7458 29.7278 55.8544 30.8234 55.8544ZM54.6668 83.9366C53.5712 83.9366 52.6798 83.0453 52.6798 81.9497C52.6798 80.8541 53.5712 79.9627 54.6668 79.9627C55.7624 79.9627 56.6537 80.8541 56.6537 81.9497C56.6537 83.0453 55.7624 83.9366 54.6668 83.9366ZM72.5493 70.028C72.5493 71.1236 71.658 72.015 70.5624 72.015C69.4668 72.015 68.5754 71.1236 68.5754 70.028V53.8675C68.5754 52.7719 69.4668 51.8805 70.5624 51.8805C71.658 51.8805 72.5493 52.7719 72.5493 53.8675V70.028ZM80.4971 66.0541C80.4971 67.1497 79.6058 68.0411 78.5102 68.0411H76.5232V55.8544H78.5102C79.6058 55.8544 80.4971 56.7458 80.4971 57.8414V66.0541Z" fill="#70908B"/>
</svg>
