<svg width="70" height="55" viewBox="0 0 70 55" fill="none" xmlns="http://www.w3.org/2000/svg">
<path fill-rule="evenodd" clip-rule="evenodd" d="M67.5775 8.53533H2.67643C1.6222 8.53533 0.767578 7.6807 0.767578 6.62647V2.80876C0.767578 1.75453 1.6222 0.899902 2.67643 0.899902H67.5775C68.6318 0.899902 69.4864 1.75453 69.4864 2.80876V6.62647C69.4864 7.6807 68.6318 8.53533 67.5775 8.53533ZM69.4862 29.5328V25.7151C69.4862 24.6608 68.6316 23.8062 67.5774 23.8062H2.67628C1.62205 23.8062 0.767426 24.6608 0.767426 25.7151V29.5328C0.767426 30.587 1.62205 31.4416 2.67628 31.4416H67.5774C68.6316 31.4416 69.4862 30.587 69.4862 29.5328ZM69.4862 48.6214V52.4391C69.4862 53.4934 68.6316 54.348 67.5774 54.348H2.67628C1.62205 54.348 0.767426 53.4934 0.767426 52.4391V48.6214C0.767426 47.5672 1.62205 46.7126 2.67628 46.7126H67.5774C68.6316 46.7126 69.4862 47.5672 69.4862 48.6214Z" fill="white"/>
</svg>
