<svg width="69" height="69" viewBox="0 0 69 69" fill="none" xmlns="http://www.w3.org/2000/svg">
<path fill-rule="evenodd" clip-rule="evenodd" d="M52.9707 47.6416L68.2416 62.9308C68.9236 63.6893 68.89 64.8505 68.1652 65.5682L65.4928 68.2438C65.1344 68.6056 64.6465 68.8092 64.1376 68.8092C63.6286 68.8092 63.1407 68.6056 62.7823 68.2438L47.5114 52.9546C47.0891 52.5313 46.7057 52.0708 46.3661 51.5785L43.5028 47.7562C38.7652 51.5439 32.8821 53.6061 26.8194 53.6044C14.3264 53.6478 3.47038 45.0195 0.678514 32.8276C-2.11335 20.6358 3.90401 8.1342 15.1681 2.72422C26.4323 -2.68575 39.937 0.439701 47.687 10.2502C55.4371 20.0607 55.3642 33.938 47.5114 43.6664L51.3291 46.3037C51.9253 46.6858 52.4761 47.1346 52.9707 47.6416ZM7.73076 26.8482C7.73076 37.4032 16.277 45.9598 26.8193 45.9598C31.8819 45.9598 36.7372 43.9462 40.317 40.3621C43.8968 36.778 45.9079 31.9169 45.9079 26.8482C45.9079 16.2932 37.3616 7.73662 26.8193 7.73662C16.277 7.73662 7.73076 16.2932 7.73076 26.8482Z" fill="white"/>
</svg>
