<svg width="69" height="69" viewBox="0 0 69 69" fill="none" xmlns="http://www.w3.org/2000/svg">
<path fill-rule="evenodd" clip-rule="evenodd" d="M13.3761 6.90773H67.1649C68.1062 6.90773 68.8692 7.67079 68.8692 8.61207V10.3164C68.8446 13.1452 68.0808 15.9184 66.6536 18.3609L58.6432 32.4387C56.9099 35.5541 53.6519 37.5141 50.0875 37.5858H28.8514C28.1147 37.5699 27.3824 37.467 26.6699 37.279L23.2612 44.4031H60.3476C61.2888 44.4031 62.0519 45.1662 62.0519 46.1075V49.5161C62.0519 50.4574 61.2888 51.2205 60.3476 51.2205H17.7392C16.8063 51.242 15.9339 50.7603 15.4553 49.9593L14.7054 48.664C14.3113 47.9054 14.3113 47.0024 14.7054 46.2438L21.0456 33.6317C20.6993 33.2661 20.391 32.8664 20.1252 32.4387L5.53611 6.90773H2.40014C1.45886 6.90773 0.695801 6.14467 0.695801 5.20339V1.79472C0.695801 0.853443 1.45886 0.090386 2.40014 0.090386H5.53611C7.98139 0.0806781 10.2446 1.38136 11.4672 3.49906L13.3761 6.90773ZM21.1476 54.6292C17.3825 54.6292 14.3303 57.6814 14.3303 61.4465C14.3303 65.2116 17.3825 68.2638 21.1476 68.2638C24.9127 68.2638 27.9649 65.2116 27.9649 61.4465C27.9649 57.6814 24.9127 54.6292 21.1476 54.6292ZM62.0517 61.4465C62.0517 65.2116 58.9994 68.2638 55.2343 68.2638C51.4692 68.2638 48.417 65.2116 48.417 61.4465C48.417 57.6814 51.4692 54.6292 55.2343 54.6292C58.9994 54.6292 62.0517 57.6814 62.0517 61.4465Z" fill="white"/>
</svg>
