<svg width="67" height="68" viewBox="0 0 67 68" fill="none" xmlns="http://www.w3.org/2000/svg">
<path fill-rule="evenodd" clip-rule="evenodd" d="M33.5822 0.453857C15.1332 0.453857 0.177246 15.4098 0.177246 33.8588C0.177246 52.3079 15.1332 67.2638 33.5822 67.2638C52.0313 67.2638 66.9872 52.3079 66.9872 33.8588C66.9872 24.9993 63.4678 16.5026 57.2031 10.238C50.9385 3.9733 42.4418 0.453857 33.5822 0.453857ZM33.582 10.4755C39.1167 10.4755 43.6035 14.9623 43.6035 20.497C43.6035 26.0317 39.1167 30.5185 33.582 30.5185C28.0473 30.5185 23.5605 26.0317 23.5605 20.497C23.5605 14.9623 28.0473 10.4755 33.582 10.4755ZM33.5814 57.1982C40.9808 57.1982 47.9437 53.696 52.355 47.7553C53.0385 46.7561 53.128 45.4653 52.5888 44.3814L51.8205 42.8113C50.1397 39.3809 46.6547 37.2044 42.8346 37.1993H24.3282C20.4536 37.2035 16.9286 39.4407 15.2755 42.9449L14.574 44.4148C14.0479 45.4898 14.1371 46.764 14.8078 47.7553C19.2191 53.696 26.1819 57.1982 33.5814 57.1982Z" fill="white"/>
</svg>
