<svg width="22" height="13" viewBox="0 0 22 13" fill="none" xmlns="http://www.w3.org/2000/svg">
<path fill-rule="evenodd" clip-rule="evenodd" d="M14.0555 12.7273C13.969 12.641 13.9004 12.5386 13.8536 12.4258C13.8068 12.313 13.7827 12.1921 13.7827 12.07C13.7827 11.9479 13.8068 11.8269 13.8536 11.7142C13.9004 11.6014 13.969 11.4989 14.0555 11.4127L18.9702 6.49976L14.0555 1.58683C13.8811 1.4125 13.7832 1.17607 13.7832 0.929542C13.7832 0.683012 13.8811 0.446579 14.0555 0.272256C14.2298 0.0979328 14.4662 -2.98767e-08 14.7127 -4.06528e-08C14.9593 -5.1429e-08 15.1957 0.0979328 15.37 0.272256L20.9402 5.84247C21.0267 5.92871 21.0953 6.03116 21.1421 6.14394C21.1889 6.25673 21.213 6.37764 21.213 6.49976C21.213 6.62187 21.1889 6.74278 21.1421 6.85557C21.0953 6.96836 21.0267 7.0708 20.9402 7.15704L15.37 12.7273C15.2838 12.8137 15.1813 12.8823 15.0686 12.9291C14.9558 12.9759 14.8349 13 14.7127 13C14.5906 13 14.4697 12.9759 14.3569 12.9291C14.2441 12.8823 14.1417 12.8137 14.0555 12.7273Z" fill="white"/>
<path fill-rule="evenodd" clip-rule="evenodd" d="M0.787109 6.49985C0.787109 6.25363 0.88492 6.0175 1.05902 5.8434C1.23313 5.66929 1.46926 5.57148 1.71548 5.57148L18.4261 5.57148C18.6723 5.57148 18.9085 5.66929 19.0826 5.8434C19.2567 6.0175 19.3545 6.25363 19.3545 6.49985C19.3545 6.74607 19.2567 6.98221 19.0826 7.15631C18.9085 7.33041 18.6723 7.42822 18.4261 7.42822L1.71548 7.42822C1.46926 7.42822 1.23313 7.33041 1.05902 7.15631C0.88492 6.98221 0.787109 6.74607 0.787109 6.49985Z" fill="white"/>
</svg>
